<svg xmlns="http://www.w3.org/2000/svg" xmlns:xlink="http://www.w3.org/1999/xlink" width="500" zoomAndPan="magnify" viewBox="0 0 375 374.999991" height="500" preserveAspectRatio="xMidYMid meet" version="1.0"><defs><clipPath id="9df31dce91"><path d="M 58.125 0 L 316.875 0 L 316.875 285 L 58.125 285 Z M 58.125 0 " clip-rule="nonzero"/></clipPath><clipPath id="ee3901a626"><path d="M 130.726562 42 L 245 42 L 245 266.976562 L 130.726562 266.976562 Z M 130.726562 42 " clip-rule="nonzero"/></clipPath></defs><g clip-path="url(#9df31dce91)"><path fill="#8a5e3b" d="M 187.5 0.253906 L 58.125 74.941406 L 58.125 224.394531 L 162.179688 284.476562 C 161.578125 272.1875 155.8125 260.726562 146.449219 252.9375 L 77.527344 213.15625 L 77.527344 86.179688 L 187.5 22.652344 L 297.472656 86.179688 L 297.472656 213.15625 L 228.550781 252.9375 C 219.1875 260.726562 213.421875 272.1875 212.820312 284.476562 L 316.875 224.394531 L 316.875 74.941406 Z M 187.5 0.253906 " fill-opacity="1" fill-rule="nonzero"/></g><path fill="#e58d00" d="M 197.015625 191.507812 L 281.292969 177.648438 L 281.292969 137.34375 C 250.203125 127.230469 215.742188 131.351562 187.5 149.632812 C 181.207031 153.75 174.613281 157.121094 167.796875 159.746094 Z M 197.015625 191.507812 " fill-opacity="1" fill-rule="nonzero"/><path fill="#fbb321" d="M 187.5 149.707031 C 159.332031 131.351562 124.796875 127.230469 93.707031 137.34375 L 93.707031 203.792969 L 148.246094 235.257812 C 166.523438 245.820312 177.835938 265.371094 177.835938 286.496094 C 177.835938 296.6875 175.214844 306.648438 170.269531 315.488281 C 163.976562 326.652344 158.433594 338.5625 158.433594 345.605469 C 158.433594 361.710938 171.46875 374.746094 187.574219 374.746094 C 203.679688 374.746094 216.714844 361.710938 216.714844 345.605469 C 216.714844 338.5625 211.171875 326.652344 204.878906 315.488281 C 199.9375 306.648438 197.3125 296.609375 197.3125 286.496094 C 197.3125 265.371094 208.625 245.820312 226.902344 235.257812 L 281.441406 203.792969 L 281.441406 161.992188 C 250.277344 172.105469 215.742188 167.984375 187.5 149.707031 Z M 210.199219 345.679688 C 210.199219 358.191406 200.011719 368.304688 187.574219 368.304688 C 187.5 368.378906 204.054688 361.859375 210.199219 345.679688 Z M 210.199219 345.679688 " fill-opacity="1" fill-rule="nonzero"/><g clip-path="url(#ee3901a626)"><path fill="#8a5e3b" d="M 179.667969 78.21875 L 183.484375 77.84375 L 183.484375 53.398438 L 183.453125 53.140625 C 183.449219 53.132812 183.4375 52.09375 183.980469 51.476562 C 184.527344 50.859375 185.765625 50.515625 187.460938 50.515625 C 189.027344 50.515625 190.234375 50.828125 190.6875 51.34375 C 191.078125 51.792969 191.089844 52.613281 191.058594 52.933594 L 191.003906 53.179688 L 191.003906 77.605469 L 195.03125 77.796875 C 203.691406 78.207031 211.152344 79.203125 217.203125 80.757812 C 219.25 81.402344 225.472656 84.082031 225.472656 92.765625 C 225.472656 97.867188 224.667969 99.980469 224.1875 100.785156 C 223.859375 101.335938 223.628906 101.507812 222.847656 101.507812 C 222.417969 101.507812 221.898438 101.4375 221.304688 101.300781 L 219.148438 100.636719 C 219.132812 100.628906 219.117188 100.625 219.101562 100.621094 L 213.539062 98.429688 L 213.539062 98.664062 C 207.867188 96.886719 201.890625 95.648438 195.6875 94.972656 L 191.003906 94.464844 L 191.003906 143.625 L 193.796875 144.628906 C 209.058594 150.136719 220.0625 156.417969 226.503906 163.292969 C 232.730469 169.949219 235.757812 177.792969 235.757812 187.269531 C 235.757812 198.277344 232.390625 206.855469 225.464844 213.488281 C 218.453125 220.203125 208.121094 224.363281 194.761719 225.851562 L 191.003906 226.273438 L 191.003906 253.773438 C 191.003906 253.785156 190.941406 254.960938 190.425781 256.03125 C 189.945312 257.039062 189.253906 257.703125 187.460938 257.703125 C 184.324219 257.703125 183.632812 254.894531 183.484375 253.597656 L 183.484375 226.503906 L 179.277344 226.484375 C 171.648438 226.445312 164.1875 225.472656 157.152344 223.601562 L 156.183594 223.335938 C 150.183594 221.679688 143.976562 219.964844 141.9375 216.261719 C 140.871094 214.328125 140.871094 211.683594 141.9375 208.175781 C 142.644531 205.847656 144.179688 203.171875 149.800781 203.171875 C 153.96875 203.171875 157.964844 204.691406 157.996094 204.703125 L 165.105469 207.488281 L 164.964844 206.742188 C 169.992188 208.027344 174.683594 208.820312 178.972656 209.105469 L 183.484375 209.410156 L 183.484375 162.117188 L 180.726562 161.089844 C 164.429688 155.03125 153.257812 148.507812 147.527344 141.703125 C 141.898438 135.023438 139.164062 127.058594 139.164062 117.34375 C 139.164062 106.964844 142.730469 98.371094 150.066406 91.070312 C 157.417969 83.75 167.378906 79.425781 179.667969 78.21875 Z M 144.097656 85.074219 C 135.210938 93.921875 130.703125 104.777344 130.703125 117.34375 C 130.703125 128.972656 134.1875 139 141.054688 147.152344 C 147.480469 154.78125 158.609375 161.605469 175.023438 167.972656 L 175.023438 200.175781 C 170.695312 199.539062 165.945312 198.386719 160.839844 196.734375 C 160.484375 196.605469 159.765625 196.355469 158.789062 196.074219 L 155.308594 194.949219 L 155.308594 195.25 C 153.648438 194.941406 151.757812 194.710938 149.800781 194.710938 C 141.667969 194.710938 136 198.617188 133.84375 205.722656 C 132.105469 211.441406 132.335938 216.363281 134.527344 220.34375 C 138.289062 227.171875 146.597656 229.464844 153.933594 231.488281 L 154.933594 231.765625 C 161.398438 233.484375 168.140625 234.511719 175.023438 234.832031 L 175.023438 253.800781 L 175.039062 254.117188 C 175.398438 258.960938 179.003906 266.164062 187.460938 266.164062 C 196.203125 266.164062 199.425781 258.789062 199.460938 253.800781 L 199.460938 233.765625 C 212.929688 231.710938 223.628906 226.953125 231.3125 219.597656 C 239.875 211.398438 244.21875 200.523438 244.21875 187.269531 C 244.21875 175.707031 240.335938 165.695312 232.679688 157.515625 C 225.636719 149.992188 214.75 143.496094 199.460938 137.707031 L 199.460938 104.015625 C 204.277344 104.796875 208.910156 105.96875 213.3125 107.503906 C 213.386719 107.539062 213.464844 107.578125 213.539062 107.613281 L 213.539062 107.652344 L 216.585938 108.71875 L 216.585938 108.714844 L 216.667969 108.75 C 216.78125 108.785156 216.882812 108.820312 216.992188 108.855469 L 222 110.597656 L 222 109.9375 C 222.285156 109.957031 222.570312 109.96875 222.847656 109.96875 C 226.585938 109.96875 229.5625 108.289062 231.457031 105.117188 C 233.144531 102.28125 233.933594 98.355469 233.933594 92.765625 C 233.933594 81.140625 226.207031 74.660156 219.589844 72.640625 L 219.414062 72.59375 C 213.761719 71.132812 207.066406 70.125 199.460938 69.585938 L 199.460938 53.929688 C 199.609375 52.59375 199.722656 48.964844 197.195312 45.941406 C 195.71875 44.171875 192.828125 42.058594 187.460938 42.058594 C 182.136719 42.058594 179.1875 44.132812 177.644531 45.871094 C 174.945312 48.921875 174.945312 52.632812 175.023438 53.828125 L 175.023438 70.273438 C 162.464844 72.167969 152.074219 77.132812 144.097656 85.074219 " fill-opacity="1" fill-rule="nonzero"/></g><path fill="#8a5e3b" d="M 175.023438 105.1875 L 175.023438 126.847656 C 174.457031 126.421875 173.925781 125.992188 173.433594 125.558594 C 169.972656 122.515625 168.273438 119.183594 168.273438 115.484375 C 168.273438 111.863281 169.152344 107.648438 175.023438 105.1875 Z M 177.375 138.09375 L 183.484375 141.128906 L 183.484375 94.558594 L 178.503906 95.453125 C 163.054688 98.234375 159.8125 107.878906 159.8125 115.484375 C 159.8125 116.347656 159.867188 117.195312 159.96875 118.035156 C 160.972656 126.113281 166.8125 132.851562 177.375 138.09375 " fill-opacity="1" fill-rule="nonzero"/><path fill="#8a5e3b" d="M 199.460938 178.269531 C 206.648438 182.890625 206.648438 187.191406 206.648438 188.800781 C 206.648438 192.480469 205.722656 196.746094 199.460938 199.0625 Z M 215.109375 188.800781 C 215.109375 185.722656 214.382812 182.851562 212.945312 180.199219 C 210.195312 175.128906 204.835938 170.847656 196.914062 167.410156 L 191.003906 164.847656 L 191.003906 209.378906 L 195.875 208.628906 C 212.609375 206.058594 215.109375 195.101562 215.109375 188.800781 " fill-opacity="1" fill-rule="nonzero"/></svg>